<svg width="317" height="233" viewBox="0 0 317 233" fill="none" xmlns="http://www.w3.org/2000/svg">
    <path d="M112.145 217.077C151.413 201.961 171.466 156.596 156.934 115.75C142.403 74.9035 98.7898 54.0449 59.5219 69.1605C20.2541 84.276 0.201366 129.642 14.7329 170.488C29.2645 211.334 72.8775 232.192 112.145 217.077ZM112.145 217.077L257.976 163.769M257.976 163.769C296.951 148.766 316.766 103.492 302.234 62.646C287.702 21.8 244.327 0.84979 205.353 15.8524M257.976 163.769C219.002 178.771 175.627 157.821 161.095 116.975C146.564 76.1291 166.379 30.8549 205.353 15.8524M205.353 15.8524L128.792 43.9822L60.802 68.681" stroke="white" stroke-width="20"/>
</svg>
