<svg width="638" height="462" viewBox="0 0 638 462" fill="none" xmlns="http://www.w3.org/2000/svg">
    <g filter="url(#filter0_d_114_276)">
        <path d="M313.763 227.449C343.805 311.851 302.349 405.593 221.169 436.827C139.989 468.061 49.8262 424.96 19.7846 340.558C-10.2571 256.156 31.1987 162.414 112.379 131.18C193.559 99.9459 283.722 143.047 313.763 227.449Z"
              fill="black"/>
        <path d="M614.147 117.719C644.189 202.121 603.225 295.673 522.652 326.674C442.078 357.674 352.407 314.384 322.366 229.982C292.324 145.58 333.288 52.0273 413.861 21.0267C494.434 -9.97389 584.105 33.3166 614.147 117.719Z"
              fill="black"/>
        <path d="M257.291 83.8525L257.299 83.8494L257.308 83.8462L365.792 44.0062C320.288 83.078 298.383 146.358 311.084 208.143C283.532 151.458 227.892 116.761 168.718 116.013L257.291 83.8525ZM412.102 16.3462L253.878 74.4529L253.861 74.4592L113.64 125.373C112.62 125.742 111.601 126.122 110.583 126.513C26.7479 158.769 -15.8318 255.404 15.074 342.234C46.0044 429.133 138.997 473.774 222.924 441.509C222.937 441.504 222.951 441.499 222.965 441.494L519.42 333.178C521.099 332.596 522.775 331.984 524.447 331.34C607.707 299.306 649.752 202.839 618.857 116.042C587.939 29.1768 495.457 -15.7013 412.102 16.3462ZM325.03 249.274C352.568 306.057 408.055 340.903 466.972 341.694L269.39 413.885C315.412 374.683 337.702 311.195 325.03 249.274Z"
              stroke="#CDCDCD" stroke-width="10"/>
        <path d="M257.291 83.8525L257.299 83.8494L257.308 83.8462L365.792 44.0062C320.288 83.078 298.383 146.358 311.084 208.143C283.532 151.458 227.892 116.761 168.718 116.013L257.291 83.8525ZM412.102 16.3462L253.878 74.4529L253.861 74.4592L113.64 125.373C112.62 125.742 111.601 126.122 110.583 126.513C26.7479 158.769 -15.8318 255.404 15.074 342.234C46.0044 429.133 138.997 473.774 222.924 441.509C222.937 441.504 222.951 441.499 222.965 441.494L519.42 333.178C521.099 332.596 522.775 331.984 524.447 331.34C607.707 299.306 649.752 202.839 618.857 116.042C587.939 29.1768 495.457 -15.7013 412.102 16.3462ZM325.03 249.274C352.568 306.057 408.055 340.903 466.972 341.694L269.39 413.885C315.412 374.683 337.702 311.195 325.03 249.274Z"
              stroke="#D6D6D6" stroke-width="10"/>
    </g>
    <defs>
        <filter id="filter0_d_114_276" x="0.00585938" y="0.984375" width="637.986" height="460.028"
                filterUnits="userSpaceOnUse" color-interpolation-filters="sRGB">
            <feFlood flood-opacity="0" result="BackgroundImageFix"/>
            <feColorMatrix in="SourceAlpha" type="matrix" values="0 0 0 0 0 0 0 0 0 0 0 0 0 0 0 0 0 0 127 0"
                           result="hardAlpha"/>
            <feOffset dx="4" dy="4"/>
            <feComposite in2="hardAlpha" operator="out"/>
            <feColorMatrix type="matrix" values="0 0 0 0 0 0 0 0 0 0 0 0 0 0 0 0 0 0 1 0"/>
            <feBlend mode="normal" in2="BackgroundImageFix" result="effect1_dropShadow_114_276"/>
            <feBlend mode="normal" in="SourceGraphic" in2="effect1_dropShadow_114_276" result="shape"/>
        </filter>
    </defs>
</svg>
